<?xml version="1.0" encoding="UTF-8"?>
<svg xmlns="http://www.w3.org/2000/svg" viewBox="0 0 1700 1080"
     width="1700" height="1080" font-family="'Patrick Hand','Caveat','Comic Sans MS',cursive">
  <defs>
    <style>
      @import url('https://fonts.googleapis.com/css2?family=Patrick+Hand&amp;family=Caveat:wght@500&amp;display=swap');
      .header   { font-size: 22px; font-weight: 700; fill: #1F1F1F; letter-spacing: 1px; }
      .lbl      { font-size: 13px; font-weight: 700; fill: #1F1F1F; letter-spacing: 0.5px; }
      .row-text { font-size: 12px; fill: #1F1F1F; font-family: 'Patrick Hand','Comic Sans MS',cursive; }
      .edge-label { font-size: 11px; font-weight: 700; }
      .container { filter: url(#rough); }
      .row       { filter: url(#rough); }
    </style>
    <filter id="rough" x="-2%" y="-2%" width="104%" height="104%">
      <feTurbulence type="fractalNoise" baseFrequency="0.018" numOctaves="2" seed="3" result="noise"/>
      <feDisplacementMap in="SourceGraphic" in2="noise" scale="1.8"/>
    </filter>
    <marker id="arrow-A23DA8" viewBox="0 0 10 10" refX="9" refY="5" markerWidth="6" markerHeight="6" orient="auto-start-reverse"><path d="M 0 0 L 10 5 L 0 10 z" fill="#A23DA8"/></marker>
<marker id="arrow-1F1F1F" viewBox="0 0 10 10" refX="9" refY="5" markerWidth="6" markerHeight="6" orient="auto-start-reverse"><path d="M 0 0 L 10 5 L 0 10 z" fill="#1F1F1F"/></marker>
  </defs>

  <rect width="100%" height="100%" fill="#FAF7F0"/>

  <!-- column headers -->
  <text class="header" x="40" y="38">SOURCES</text>
<text class="header" x="460" y="38">PIPELINE  (CMS-first · 8 steps)</text>
<text class="header" x="900" y="38">MART</text>
<text class="header" x="1320" y="38">DOWNSTREAM</text>

  <!-- arrows underneath containers -->
  <path d="M 360 150 C 400.0 145.2, 420.0 130.8, 460 134" fill="none" stroke="#A23DA8" stroke-width="2" marker-end="url(#arrow-A23DA8)"/>
<path d="M 360 300 C 400.0 319.2, 420.0 376.8, 460 364" fill="none" stroke="#A23DA8" stroke-width="2" marker-end="url(#arrow-A23DA8)"/>
<path d="M 360 450 C 400.0 458.7, 420.0 484.8, 460 479" fill="none" stroke="#A23DA8" stroke-width="2" marker-end="url(#arrow-A23DA8)"/>
<path d="M 360 600 C 400.0 598.2, 420.0 592.8, 460 594" fill="none" stroke="#A23DA8" stroke-width="2" marker-end="url(#arrow-A23DA8)"/>
<path d="M 360 750 C 400.0 737.7, 420.0 700.8, 460 709" fill="none" stroke="#A23DA8" stroke-width="2" marker-end="url(#arrow-A23DA8)"/>
<path d="M 360 900 C 400.0 877.2, 420.0 808.8, 460 824" fill="none" stroke="#A23DA8" stroke-width="2" marker-end="url(#arrow-A23DA8)"/>
<path d="M 620 178 C 620.0 179.35, 620.0 203.65, 620 205" fill="none" stroke="#1F1F1F" stroke-width="2" marker-end="url(#arrow-1F1F1F)"/>
<path d="M 620 293 C 620.0 294.35, 620.0 318.65, 620 320" fill="none" stroke="#1F1F1F" stroke-width="2" marker-end="url(#arrow-1F1F1F)"/>
<path d="M 620 408 C 620.0 409.35, 620.0 433.65, 620 435" fill="none" stroke="#1F1F1F" stroke-width="2" marker-end="url(#arrow-1F1F1F)"/>
<path d="M 620 523 C 620.0 524.35, 620.0 548.65, 620 550" fill="none" stroke="#1F1F1F" stroke-width="2" marker-end="url(#arrow-1F1F1F)"/>
<path d="M 620 638 C 620.0 639.35, 620.0 663.65, 620 665" fill="none" stroke="#1F1F1F" stroke-width="2" marker-end="url(#arrow-1F1F1F)"/>
<path d="M 620 753 C 620.0 754.35, 620.0 778.65, 620 780" fill="none" stroke="#1F1F1F" stroke-width="2" marker-end="url(#arrow-1F1F1F)"/>
<path d="M 620 868 C 620.0 869.35, 620.0 893.65, 620 895" fill="none" stroke="#1F1F1F" stroke-width="2" marker-end="url(#arrow-1F1F1F)"/>
<path d="M 780 939 C 828.0 913.45, 852.0 453.55, 900 428" fill="none" stroke="#A23DA8" stroke-width="2" marker-end="url(#arrow-A23DA8)"/>
<text class="edge-label" x="840.0" y="677.5" fill="#A23DA8">write</text>
<path d="M 1220 290 C 1260.0 285.4, 1280.0 202.6, 1320 198" fill="none" stroke="#A23DA8" stroke-width="2" marker-end="url(#arrow-A23DA8)"/>
<text class="edge-label" x="1270.0" y="238.0" fill="#A23DA8">score</text>
<path d="M 1480 306 C 1480.0 309.7, 1480.0 376.3, 1480 380" fill="none" stroke="#A23DA8" stroke-width="2" marker-end="url(#arrow-A23DA8)"/>
<text class="edge-label" x="1480.0" y="337.0" fill="#A23DA8">top-5</text>
<path d="M 1220 446 C 1260.0 456.7, 1280.0 649.3, 1320 660" fill="none" stroke="#A23DA8" stroke-width="2" marker-end="url(#arrow-A23DA8)"/>
<text class="edge-label" x="1270.0" y="547.0" fill="#A23DA8">render</text>

  <!-- containers + rows on top -->
  <text class="lbl" x="40" y="82">CMS HGI</text>
<rect class="container" x="40" y="90" width="320" height="120" rx="6" ry="6" fill="none" stroke="#9B7BC9" stroke-width="2.5"/>
<rect class="row" x="52" y="104" width="296" height="28" rx="3" ry="3" fill="#FBEFE0" stroke="#5A3A1A" stroke-width="1"/>
<text class="row-text" x="62" y="123.0">Hospital list (15 states)</text>
<rect class="row" x="52" y="136" width="296" height="28" rx="3" ry="3" fill="#FBEFE0" stroke="#5A3A1A" stroke-width="1"/>
<text class="row-text" x="62" y="155.0">ccn · hospital_type · ownership</text>
<rect class="row" x="52" y="168" width="296" height="28" rx="3" ry="3" fill="#FBEFE0" stroke="#5A3A1A" stroke-width="1"/>
<text class="row-text" x="62" y="187.0">has_ED · mailing address</text>
<text class="lbl" x="40" y="232">AHRQ COMPENDIUM</text>
<rect class="container" x="40" y="240" width="320" height="120" rx="6" ry="6" fill="none" stroke="#9B7BC9" stroke-width="2.5"/>
<rect class="row" x="52" y="254" width="296" height="28" rx="3" ry="3" fill="#FBEFE0" stroke="#5A3A1A" stroke-width="1"/>
<text class="row-text" x="62" y="273.0">parent_system · health_sys_id</text>
<rect class="row" x="52" y="286" width="296" height="28" rx="3" ry="3" fill="#FBEFE0" stroke="#5A3A1A" stroke-width="1"/>
<text class="row-text" x="62" y="305.0">facilities_in_system</text>
<rect class="row" x="52" y="318" width="296" height="28" rx="3" ry="3" fill="#FBEFE0" stroke="#5A3A1A" stroke-width="1"/>
<text class="row-text" x="62" y="337.0">98% CCN match</text>
<text class="lbl" x="40" y="382">CMS POS — Q1 2026</text>
<rect class="container" x="40" y="390" width="320" height="120" rx="6" ry="6" fill="none" stroke="#9B7BC9" stroke-width="2.5"/>
<rect class="row" x="52" y="404" width="296" height="28" rx="3" ry="3" fill="#FBEFE0" stroke="#5A3A1A" stroke-width="1"/>
<text class="row-text" x="62" y="423.0">CRTFD_BED_CNT (certified)</text>
<rect class="row" x="52" y="436" width="296" height="28" rx="3" ry="3" fill="#FBEFE0" stroke="#5A3A1A" stroke-width="1"/>
<text class="row-text" x="62" y="455.0">PSYCH_UNIT_BED_CNT</text>
<rect class="row" x="52" y="468" width="296" height="28" rx="3" ry="3" fill="#FBEFE0" stroke="#5A3A1A" stroke-width="1"/>
<text class="row-text" x="62" y="487.0">→ has_behavioral_unit</text>
<text class="lbl" x="40" y="532">NPPES</text>
<rect class="container" x="40" y="540" width="320" height="120" rx="6" ry="6" fill="none" stroke="#9B7BC9" stroke-width="2.5"/>
<rect class="row" x="52" y="554" width="296" height="28" rx="3" ry="3" fill="#FBEFE0" stroke="#5A3A1A" stroke-width="1"/>
<text class="row-text" x="62" y="573.0">DBA (other_names → name)</text>
<rect class="row" x="52" y="586" width="296" height="28" rx="3" ry="3" fill="#FBEFE0" stroke="#5A3A1A" stroke-width="1"/>
<text class="row-text" x="62" y="605.0">physical address + zip</text>
<rect class="row" x="52" y="618" width="296" height="28" rx="3" ry="3" fill="#FBEFE0" stroke="#5A3A1A" stroke-width="1"/>
<text class="row-text" x="62" y="637.0">edm_seed (auth_official)</text>
<text class="lbl" x="40" y="682">CENSUS GEOCODER</text>
<rect class="container" x="40" y="690" width="320" height="120" rx="6" ry="6" fill="none" stroke="#9B7BC9" stroke-width="2.5"/>
<rect class="row" x="52" y="704" width="296" height="28" rx="3" ry="3" fill="#FBEFE0" stroke="#5A3A1A" stroke-width="1"/>
<text class="row-text" x="62" y="723.0">lat · lng (TIGER, free)</text>
<rect class="row" x="52" y="736" width="296" height="28" rx="3" ry="3" fill="#FBEFE0" stroke="#5A3A1A" stroke-width="1"/>
<text class="row-text" x="62" y="755.0">batch ≤ 10k · no key</text>
<rect class="row" x="52" y="768" width="296" height="28" rx="3" ry="3" fill="#FBEFE0" stroke="#5A3A1A" stroke-width="1"/>
<text class="row-text" x="62" y="787.0">retry on 502 · strip PO BOX</text>
<text class="lbl" x="40" y="832">MANDATES.CSV</text>
<rect class="container" x="40" y="840" width="320" height="120" rx="6" ry="6" fill="none" stroke="#9B7BC9" stroke-width="2.5"/>
<rect class="row" x="52" y="854" width="296" height="28" rx="3" ry="3" fill="#FBEFE0" stroke="#5A3A1A" stroke-width="1"/>
<text class="row-text" x="62" y="873.0">Status: Upcoming / In force</text>
<rect class="row" x="52" y="886" width="296" height="28" rx="3" ry="3" fill="#FBEFE0" stroke="#5A3A1A" stroke-width="1"/>
<text class="row-text" x="62" y="905.0">effective_date (parsed)</text>
<rect class="row" x="52" y="918" width="296" height="28" rx="3" ry="3" fill="#FBEFE0" stroke="#5A3A1A" stroke-width="1"/>
<text class="row-text" x="62" y="937.0">source_url</text>
<text class="lbl" x="460" y="82">STEP 1 · PULL CMS HGI</text>
<rect class="container" x="460" y="90" width="320" height="88" rx="6" ry="6" fill="none" stroke="#E08E45" stroke-width="2.5"/>
<rect class="row" x="472" y="104" width="296" height="28" rx="3" ry="3" fill="#FBEFE0" stroke="#5A3A1A" stroke-width="1"/>
<text class="row-text" x="482" y="123.0">→ clean hospital list</text>
<rect class="row" x="472" y="136" width="296" height="28" rx="3" ry="3" fill="#FBEFE0" stroke="#5A3A1A" stroke-width="1"/>
<text class="row-text" x="482" y="155.0">primary seed (NOT NPPES)</text>
<text class="lbl" x="460" y="197">STEP 2 · DEDUP</text>
<rect class="container" x="460" y="205" width="320" height="88" rx="6" ry="6" fill="none" stroke="#E08E45" stroke-width="2.5"/>
<rect class="row" x="472" y="219" width="296" height="28" rx="3" ry="3" fill="#FBEFE0" stroke="#5A3A1A" stroke-width="1"/>
<text class="row-text" x="482" y="238.0">key: CCN + name+addr</text>
<rect class="row" x="472" y="251" width="296" height="28" rx="3" ry="3" fill="#FBEFE0" stroke="#5A3A1A" stroke-width="1"/>
<text class="row-text" x="482" y="270.0">do NOT key on NPI</text>
<text class="lbl" x="460" y="312">STEP 3 · JOIN AHRQ</text>
<rect class="container" x="460" y="320" width="320" height="88" rx="6" ry="6" fill="none" stroke="#E08E45" stroke-width="2.5"/>
<rect class="row" x="472" y="334" width="296" height="28" rx="3" ry="3" fill="#FBEFE0" stroke="#5A3A1A" stroke-width="1"/>
<text class="row-text" x="482" y="353.0">add parent_system</text>
<rect class="row" x="472" y="366" width="296" height="28" rx="3" ry="3" fill="#FBEFE0" stroke="#5A3A1A" stroke-width="1"/>
<text class="row-text" x="482" y="385.0">add facilities_in_system</text>
<text class="lbl" x="460" y="427">STEP 4 · JOIN POS</text>
<rect class="container" x="460" y="435" width="320" height="88" rx="6" ry="6" fill="none" stroke="#E08E45" stroke-width="2.5"/>
<rect class="row" x="472" y="449" width="296" height="28" rx="3" ry="3" fill="#FBEFE0" stroke="#5A3A1A" stroke-width="1"/>
<text class="row-text" x="482" y="468.0">add certified beds</text>
<rect class="row" x="472" y="481" width="296" height="28" rx="3" ry="3" fill="#FBEFE0" stroke="#5A3A1A" stroke-width="1"/>
<text class="row-text" x="482" y="500.0">add has_behavioral_unit</text>
<text class="lbl" x="460" y="542">STEP 5 · ENRICH NPPES</text>
<rect class="container" x="460" y="550" width="320" height="88" rx="6" ry="6" fill="none" stroke="#E08E45" stroke-width="2.5"/>
<rect class="row" x="472" y="564" width="296" height="28" rx="3" ry="3" fill="#FBEFE0" stroke="#5A3A1A" stroke-width="1"/>
<text class="row-text" x="482" y="583.0">prefer DBA over legal</text>
<rect class="row" x="472" y="596" width="296" height="28" rx="3" ry="3" fill="#FBEFE0" stroke="#5A3A1A" stroke-width="1"/>
<text class="row-text" x="482" y="615.0">edm_seed from auth_official</text>
<text class="lbl" x="460" y="657">STEP 6 · GEOCODE</text>
<rect class="container" x="460" y="665" width="320" height="88" rx="6" ry="6" fill="none" stroke="#E08E45" stroke-width="2.5"/>
<rect class="row" x="472" y="679" width="296" height="28" rx="3" ry="3" fill="#FBEFE0" stroke="#5A3A1A" stroke-width="1"/>
<text class="row-text" x="482" y="698.0">Census batch geocoder</text>
<rect class="row" x="472" y="711" width="296" height="28" rx="3" ry="3" fill="#FBEFE0" stroke="#5A3A1A" stroke-width="1"/>
<text class="row-text" x="482" y="730.0">retry · address-clean</text>
<text class="lbl" x="460" y="772">STEP 7 · MANDATE-JOIN</text>
<rect class="container" x="460" y="780" width="320" height="88" rx="6" ry="6" fill="none" stroke="#E08E45" stroke-width="2.5"/>
<rect class="row" x="472" y="794" width="296" height="28" rx="3" ry="3" fill="#FBEFE0" stroke="#5A3A1A" stroke-width="1"/>
<text class="row-text" x="482" y="813.0">status logic (In force / Upcoming)</text>
<rect class="row" x="472" y="826" width="296" height="28" rx="3" ry="3" fill="#FBEFE0" stroke="#5A3A1A" stroke-width="1"/>
<text class="row-text" x="482" y="845.0">NOT raw countdown</text>
<text class="lbl" x="460" y="887">STEP 8 · TIER</text>
<rect class="container" x="460" y="895" width="320" height="88" rx="6" ry="6" fill="none" stroke="#E08E45" stroke-width="2.5"/>
<rect class="row" x="472" y="909" width="296" height="28" rx="3" ry="3" fill="#FBEFE0" stroke="#5A3A1A" stroke-width="1"/>
<text class="row-text" x="482" y="928.0">by beds + hospital_type</text>
<rect class="row" x="472" y="941" width="296" height="28" rx="3" ry="3" fill="#FBEFE0" stroke="#5A3A1A" stroke-width="1"/>
<text class="row-text" x="482" y="960.0">Critical Access → Tier 3</text>
<text class="lbl" x="900" y="252">DATA/MART/TAM.CSV  (1 row = facility)</text>
<rect class="container" x="900" y="260" width="320" height="216" rx="6" ry="6" fill="none" stroke="#69A55C" stroke-width="2.5"/>
<rect class="row" x="912" y="274" width="296" height="28" rx="3" ry="3" fill="#FBEFE0" stroke="#5A3A1A" stroke-width="1"/>
<text class="row-text" x="922" y="293.0">identity: account_id · ccn · facility_name</text>
<rect class="row" x="912" y="306" width="296" height="28" rx="3" ry="3" fill="#FBEFE0" stroke="#5A3A1A" stroke-width="1"/>
<text class="row-text" x="922" y="325.0">footprint: lat,lng · beds · has_ED · has_BH</text>
<rect class="row" x="912" y="338" width="296" height="28" rx="3" ry="3" fill="#FBEFE0" stroke="#5A3A1A" stroke-width="1"/>
<text class="row-text" x="922" y="357.0">parent: parent_system · facilities_in_system</text>
<rect class="row" x="912" y="370" width="296" height="28" rx="3" ry="3" fill="#FBEFE0" stroke="#5A3A1A" stroke-width="1"/>
<text class="row-text" x="922" y="389.0">mandate: status · effective_date · src_url</text>
<rect class="row" x="912" y="402" width="296" height="28" rx="3" ry="3" fill="#FBEFE0" stroke="#5A3A1A" stroke-width="1"/>
<text class="row-text" x="922" y="421.0">edm: edm_seed name · title · phone</text>
<rect class="row" x="912" y="434" width="296" height="28" rx="3" ry="3" fill="#FBEFE0" stroke="#5A3A1A" stroke-width="1"/>
<text class="row-text" x="922" y="453.0">meta: facility_tier · confidence · needs_review</text>
<text class="lbl" x="1320" y="82">FORGE SCORE  (pre-call proxies)</text>
<rect class="container" x="1320" y="90" width="320" height="216" rx="6" ry="6" fill="none" stroke="#D96B7E" stroke-width="2.5"/>
<rect class="row" x="1332" y="104" width="296" height="28" rx="3" ry="3" fill="#FBEFE0" stroke="#5A3A1A" stroke-width="1"/>
<text class="row-text" x="1342" y="123.0">Fit (gate)  · pass / fail</text>
<rect class="row" x="1332" y="136" width="296" height="28" rx="3" ry="3" fill="#FBEFE0" stroke="#5A3A1A" stroke-width="1"/>
<text class="row-text" x="1342" y="155.0">Acute Need  · 0–3</text>
<rect class="row" x="1332" y="168" width="296" height="28" rx="3" ry="3" fill="#FBEFE0" stroke="#5A3A1A" stroke-width="1"/>
<text class="row-text" x="1342" y="187.0">Event       · 0–3 (mandate clock)</text>
<rect class="row" x="1332" y="200" width="296" height="28" rx="3" ry="3" fill="#FBEFE0" stroke="#5A3A1A" stroke-width="1"/>
<text class="row-text" x="1342" y="219.0">Gravity     · 0–3 (sponsor / budget)</text>
<rect class="row" x="1332" y="232" width="296" height="28" rx="3" ry="3" fill="#FBEFE0" stroke="#5A3A1A" stroke-width="1"/>
<text class="row-text" x="1342" y="251.0">TOTAL · TIER · rationale</text>
<rect class="row" x="1332" y="264" width="296" height="28" rx="3" ry="3" fill="#FBEFE0" stroke="#5A3A1A" stroke-width="1"/>
<text class="row-text" x="1342" y="283.0">Resolve / Clarity → confirm on call</text>
<text class="lbl" x="1320" y="372">5 QSOs  (TIER C · paid enrichment)</text>
<rect class="container" x="1320" y="380" width="320" height="152" rx="6" ry="6" fill="none" stroke="#D96B7E" stroke-width="2.5"/>
<rect class="row" x="1332" y="394" width="296" height="28" rx="3" ry="3" fill="#FBEFE0" stroke="#5A3A1A" stroke-width="1"/>
<text class="row-text" x="1342" y="413.0">Apify + Prospeo / Apollo</text>
<rect class="row" x="1332" y="426" width="296" height="28" rx="3" ry="3" fill="#FBEFE0" stroke="#5A3A1A" stroke-width="1"/>
<text class="row-text" x="1342" y="445.0">Street View recon (entrances)</text>
<rect class="row" x="1332" y="458" width="296" height="28" rx="3" ry="3" fill="#FBEFE0" stroke="#5A3A1A" stroke-width="1"/>
<text class="row-text" x="1342" y="477.0">is_qso_candidate = TRUE</text>
<rect class="row" x="1332" y="490" width="296" height="28" rx="3" ry="3" fill="#FBEFE0" stroke="#5A3A1A" stroke-width="1"/>
<text class="row-text" x="1342" y="509.0">one-off draft (NOT a sequence)</text>
<text class="lbl" x="1320" y="592">DASHBOARD  (static, reads tam.json)</text>
<rect class="container" x="1320" y="600" width="320" height="120" rx="6" ry="6" fill="none" stroke="#D96B7E" stroke-width="2.5"/>
<rect class="row" x="1332" y="614" width="296" height="28" rx="3" ry="3" fill="#FBEFE0" stroke="#5A3A1A" stroke-width="1"/>
<text class="row-text" x="1342" y="633.0">US map view (mandate states)</text>
<rect class="row" x="1332" y="646" width="296" height="28" rx="3" ry="3" fill="#FBEFE0" stroke="#5A3A1A" stroke-width="1"/>
<text class="row-text" x="1342" y="665.0">Clay-style list view</text>
<rect class="row" x="1332" y="678" width="296" height="28" rx="3" ry="3" fill="#FBEFE0" stroke="#5A3A1A" stroke-width="1"/>
<text class="row-text" x="1342" y="697.0">sortable / filterable by FORGE</text>
<text class="lbl" x="1320" y="792">GUARDRAILS  (never break)</text>
<rect class="container" x="1320" y="800" width="320" height="152" rx="6" ry="6" fill="none" stroke="#C0392B" stroke-width="2.5"/>
<rect class="row" x="1332" y="814" width="296" height="28" rx="3" ry="3" fill="#FBEFE0" stroke="#5A3A1A" stroke-width="1"/>
<text class="row-text" x="1342" y="833.0">Never fabricate · unknown = null + needs_review</text>
<rect class="row" x="1332" y="846" width="296" height="28" rx="3" ry="3" fill="#FBEFE0" stroke="#5A3A1A" stroke-width="1"/>
<text class="row-text" x="1342" y="865.0">Never seed NPPES first</text>
<rect class="row" x="1332" y="878" width="296" height="28" rx="3" ry="3" fill="#FBEFE0" stroke="#5A3A1A" stroke-width="1"/>
<text class="row-text" x="1342" y="897.0">Paid (Apify / contacts) only on 5 QSOs</text>
<rect class="row" x="1332" y="910" width="296" height="28" rx="3" ry="3" fill="#FBEFE0" stroke="#5A3A1A" stroke-width="1"/>
<text class="row-text" x="1342" y="929.0">No email sequences — one-offs only</text>

  <!-- footer credit / generated tag -->
  <text x="40" y="1062" font-size="10" fill="#888"
        font-family="ui-monospace,Menlo,monospace">
    firefly-gtm · TAM pipeline source map · regenerate: python3 diagrams/generate_source_map.py
  </text>
</svg>
